<?xml version="1.0" encoding="utf-8"?>
<!-- Generator: Adobe Illustrator 18.0.0, SVG Export Plug-In . SVG Version: 6.00 Build 0)  -->
<!DOCTYPE svg PUBLIC "-//W3C//DTD SVG 1.1//EN" "http://www.w3.org/Graphics/SVG/1.1/DTD/svg11.dtd">
<svg version="1.1" id="图层_1" xmlns="http://www.w3.org/2000/svg" xmlns:xlink="http://www.w3.org/1999/xlink" x="0px" y="0px"
	 viewBox="0 0 283.5 283.5" enable-background="new 0 0 283.5 283.5" xml:space="preserve">
<g id="图层_1_1_" display="none">
	
		<image display="inline" overflow="visible" width="189" height="189" xlink:href="FF9C1071.png"  transform="matrix(1.4361 0 0 1.4361 8.4988 5.9992)">
	</image>
</g>
<g id="图层_2">
	<path fill="none" stroke="#000000" stroke-miterlimit="10" d="M189,221h31c0,0,10,0,10-6c0-33.1,1.5-66.1,1.7-99.2
		c0.1-12.1,0.1-24.2-0.2-36.3c-0.1-3.6,0.2-7.7-0.6-11.1c-2.1-9-28-5.4-34.7-5.6c-21.1-0.6-42.1-0.9-63.2-1.1
		c-12.2-0.1-24.5-0.2-36.7-0.1c-9.4,0.1-21.7-0.8-30.3,2.1c-7.7,2.6-11,10.2-11,17.9c0,24.5,0,49.1,0,73.6c0,12.5-0.2,24.9,0,37.4
		c0.2,13.4-3.2,26.9,13.4,29.7c11.4,1.9,22.9-0.3,34.4-0.4c13-0.1,26-0.4,39-0.8c9.1-0.3,9.8-10.4,10.7-17.2
		c1.4-10.9,3.1-22.3,8.1-32.3c4.2-8.5,10.4-15.7,18.2-21.1c7.7-5.2,20.3-12,29.8-10.9c9,1,9,1,9,1s-10-14.5-20-19.5
		c-36.2-18.1-81.5-4.5-118.5,4c3.4,6.7,8.6,15.7,8,23.5c-1,14-0.7,26.8-6.5,40"/>
</g>
<g id="图层_3">
	<path fill="none" stroke="#000000" stroke-miterlimit="10" d="M210,120c0,0-1.1,9.6,2.2,13.7c3.3,4.1,5.3,6.8,5.3,6.8
		c-0.3-0.4,2.6-4.5,2.9-5c3-5,2.6-12,2.1-17.5c-0.5-5.3-1.2-11.3-4-16"/>
</g>
<g id="图层_4">
	<path fill="none" stroke="#000000" stroke-miterlimit="10" d="M172.5,213c2.5-17-9-46.9-9-46.9c-7.4-0.5-14.8-1.1-22.2-1.6
		c-6.7-0.5-13.9-2.5-20.5-0.6c-7.7,2.1-12.2,10.9-15.3,17.7c-7,15.5-9,31.5-9,31.5"/>
	<path fill="none" stroke="#000000" stroke-miterlimit="10" d="M86.5,143.9c0,0,21,26.6,23,69.1"/>
</g>
<path fill="none" stroke="#000000" stroke-miterlimit="10" d="M122.3,165.8c-1.7-1.4-3.7-1.2-4.4-0.8c-0.6,0.4-1.6,1.1-1.4,1.9
	c0.3,0.9,1.8,1.5,2.6,0.9c0.9-0.7,0.3-2.5-0.6-3"/>
</svg>
